# xmcd
#
# Track frame offsets:
#	150
#	10338
#	22175
#	36688
#	48525
#	60038
#	71500
#	85050
#	96388
#	111563
#
# Disc length: 1644 seconds
#
# Revision: 0
# Processed by: cddbd v1.4PL0 Copyright (c) Steve Scherf et al.
# Submitted via: dBpowerAMP V4.0
#
DISCID=89066a0a
DTITLE=Donna Fargo - Light The Light
DYEAR=1900
DGENRE=Country
TTITLE0=Hello Little Bluebird-Donna Fargo
TTITLE1=U.S Of America-Donna Fargo
TTITLE2=I'll Try A Little Bit Harder-Donna Fargo
TTITLE3=Funny Face-Donna Fargo
TTITLE4=It Do Feel Good-Donna Fargo
TTITLE5=The Happiest Girl In The Whole USA-Donna Fargo
TTITLE6=You Can't Be A Beacon If Your Light Don't Shine-Donna Fargo
TTITLE7=Superman-Donna Fargo
TTITLE8=You Were Always There-Donna Fargo
TTITLE9=Little Girl Gone-Donna Fargo
EXTD=
EXTT0=
EXTT1=
EXTT2=
EXTT3=
EXTT4=
EXTT5=
EXTT6=
EXTT7=
EXTT8=
EXTT9=
PLAYORDER=
